<?xml version="1.0" encoding="utf-8"?>
<!-- Generator: Adobe Illustrator 25.0.0, SVG Export Plug-In . SVG Version: 6.00 Build 0)  -->
<svg version="1.1" id="Layer_1" xmlns="http://www.w3.org/2000/svg" xmlns:xlink="http://www.w3.org/1999/xlink" x="0px" y="0px"
	 viewBox="0 0 300 180" style="enable-background:new 0 0 300 180;" xml:space="preserve">
<style type="text/css">
	.st0{fill:#FCB340;}
	.st1{fill:#CC0000;}
</style>
<g>
	<g>
		<path class="st0" d="M209.4,1.1c-22.8,0-43.7,8.6-59.4,22.8c2,1.8,3.9,3.7,5.7,5.6c2.7,2.9,5.1,5.9,7.4,9.1h-26.2
			c-2.2,3.1-4.2,6.3-5.9,9.6H169c1.6,2.9,3,5.9,4.2,9.1h-46.5c-1.2,3.1-2.3,6.3-3.2,9.6h52.9c0.8,3,1.4,6,1.9,9.1h-56.8
			c-0.5,3.2-0.8,6.4-1,9.6h58.8c0.1,1.5,0.1,3,0.1,4.5s0,3-0.1,4.5h-58.8c0.2,3.3,0.5,6.5,1,9.6h56.8c-0.5,3.1-1.1,6.1-1.9,9.1
			h-52.9c0.9,3.3,1.9,6.5,3.2,9.6h46.5c-1.2,3.1-2.6,6.1-4.2,9.1H131c1.8,3.3,3.8,6.5,5.9,9.6h26.2c-2.3,3.2-4.7,6.2-7.4,9.1
			c-1.8,2-3.7,3.8-5.7,5.6c15.8,14.2,36.6,22.8,59.4,22.8c49.1,0,88.9-39.8,88.9-88.9S258.5,1.1,209.4,1.1z"/>
	</g>
	<path class="st1" d="M179.5,90c0-1.5,0-3-0.1-4.5h-58.8c0.2-3.3,0.5-6.5,1-9.6h56.8c-0.5-3.1-1.1-6.1-1.9-9.1h-52.9
		c0.9-3.3,1.9-6.5,3.2-9.6h46.5c-1.2-3.1-2.6-6.1-4.2-9.1H131c1.8-3.3,3.8-6.5,5.9-9.6h26.2c-2.3-3.2-4.7-6.2-7.4-9.1
		c-1.8-2-3.7-3.8-5.7-5.6C134.2,9.7,113.4,1.1,90.6,1.1C41.5,1.1,1.6,40.9,1.6,90s39.8,88.9,88.9,88.9c22.8,0,43.7-8.6,59.4-22.8
		c2-1.8,3.9-3.7,5.7-5.6c2.7-2.9,5.1-5.9,7.4-9.1h-26.2c-2.2-3.1-4.2-6.3-5.9-9.6H169c1.6-2.9,3-5.9,4.2-9.1h-46.5
		c-1.2-3.1-2.3-6.3-3.2-9.6h52.9c0.8-3,1.4-6,1.9-9.1h-56.8c-0.5-3.2-0.8-6.4-1-9.6h58.8C179.5,93,179.5,91.5,179.5,90z"/>
</g>
<g>
	<image style="overflow:visible;" width="606" height="419" xlink:href="311A9196.jpg"  transform="matrix(1 0 0 1 -153 -7392)">
	</image>
</g>
</svg>
